<?xml version="1.0" encoding="UTF-8"?>
<svg id="Layer_1" data-name="Layer 1" xmlns="http://www.w3.org/2000/svg" viewBox="0 0 571.782 106.766">
  <defs>
    <style>
      .cls-1 {
        fill: #e2e2e2;
        stroke-width: 0px;
      }

      .cls-2 {
        isolation: isolate;
      }
    </style>
  </defs>
  <g class="cls-2">
    <g class="cls-2">
      <path class="cls-1" d="M2.341,103.378c4.291-1.431,5.201-5.332,5.201-14.694v-44.732H0l.65-2.08h6.892C8.453,22.756,28.348,3.641,50.194,3.641c5.461,0,9.232,1.04,9.232,3.642,0,2.73-3.901,8.712-9.752,8.712-6.632,0-12.354-1.69-20.416-4.812-3.641,1.951-8.453,5.462-8.453,18.855v11.833h16.254l-.65,2.08h-15.604v44.732c0,9.362.911,13.264,5.202,14.694v1.82H2.341v-1.82Z"/>
    </g>
    <g class="cls-2">
      <path class="cls-1" d="M38.881,74.38c0-21.065,16.904-35.109,34.719-35.109,16.125,0,34.589,9.492,34.589,32.379,0,22.235-19.245,34.85-34.589,34.85-16.905,0-34.719-10.013-34.719-32.119ZM95.056,81.532c0-16.515-11.313-41.352-28.088-39.661-11.313,1.17-15.084,11.573-15.084,22.756,0,15.345,9.103,39.011,26.267,39.011,12.744,0,16.905-11.053,16.905-22.105ZM55.785,25.097c0-3.771,2.991-6.762,6.892-6.762,4.161,0,7.152,2.99,7.152,7.021,0,3.901-3.121,6.892-7.152,6.892-3.901,0-6.892-2.99-6.892-7.151ZM77.891,25.097c0-3.771,3.121-6.762,7.152-6.762,3.771,0,6.892,3.12,6.892,7.021s-2.991,6.892-6.892,6.892c-4.031,0-7.152-2.99-7.152-7.151Z"/>
    </g>
    <g class="cls-2">
      <path class="cls-1" d="M117.165,103.378c4.291-1.431,5.201-5.332,5.201-14.694v-29.908c0-7.672-1.95-8.973-5.201-10.402v-1.82l17.165-7.543,1.3,1.041v15.734c1.951-4.552,5.332-8.583,9.493-11.443,4.812-3.381,9.752-5.071,15.994-5.071,4.421,0,8.322,1.17,8.322,3.9,0,2.861-2.86,8.453-8.842,8.453-3.641,0-8.583-1.301-16.905-3.901-3.25,2.73-7.672,8.582-8.062,15.084v25.877c0,9.362.91,13.264,5.202,14.694v1.82h-23.667v-1.82Z"/>
    </g>
    <g class="cls-2">
      <path class="cls-1" d="M212.092,99.997v-21.456c-3.641,15.084-13.004,27.958-26.527,27.958-9.623,0-17.685-6.112-17.685-17.035,0-13.394,13.654-18.595,29.778-23.146l14.434-4.161c-.26-12.873-7.282-17.814-16.905-17.814-7.282,0-14.434,3.121-21.066,11.053l-1.3-1.17c7.282-8.973,17.295-14.954,29.128-14.954,15.734,0,23.146,8.452,23.146,24.316v25.097c0,9.362.91,13.264,5.201,14.694v1.82h-13.003c-3.381,0-5.201-1.82-5.201-5.201ZM192.066,97.006c12.743,0,19.895-17.944,20.025-29.647v-3.382l-13.914,4.031c-6.111,1.69-18.205,6.112-18.205,16.905,0,8.582,6.112,12.093,12.094,12.093Z"/>
      <path class="cls-1" d="M236.541,103.378c4.291-1.431,5.201-5.332,5.201-14.694v-29.908c0-7.672-1.95-8.973-5.201-10.402v-1.82l17.165-7.543,1.3,1.041v10.923c7.152-5.852,16.515-11.703,26.657-11.703,11.963,0,20.025,6.241,20.025,21.456v27.957c0,9.362.91,13.264,5.202,14.694v1.82h-23.667v-1.82c4.291-1.431,5.201-5.332,5.201-14.694v-25.617c0-11.703-5.071-18.595-14.694-18.595-6.112,0-11.703,2.991-18.725,8.713v35.499c0,9.362.91,13.264,5.202,14.694v1.82h-23.667v-1.82Z"/>
      <path class="cls-1" d="M313.394,103.378c4.292-1.431,5.202-5.332,5.202-14.694V19.765c0-7.672-1.95-8.972-5.202-10.402v-1.82l17.166-7.542,1.3,1.04v74.771l20.416-20.286c8.322-8.322,8.192-13.264,5.591-14.174v-1.17h16.515v1.82c-4.161,1.301-9.232,3.251-15.864,9.883l-8.322,8.322,15.475,27.958c5.071,9.102,9.103,15.214,15.344,15.214v1.82h-10.402c-6.372,0-12.354-3.901-18.596-15.604l-10.793-20.545-9.362,9.362v10.272c0,9.362.91,13.264,5.201,14.694v1.82h-23.667v-1.82Z"/>
    </g>
    <g class="cls-2">
      <path class="cls-1" d="M383.356,103.378c4.291-1.431,5.201-5.332,5.201-14.694v-29.908c0-7.672-1.95-8.973-5.201-10.402v-1.82l17.164-7.543,1.301,1.041v15.734c1.95-4.552,5.331-8.583,9.492-11.443,4.812-3.381,9.753-5.071,15.994-5.071,4.422,0,8.322,1.17,8.322,3.9,0,2.861-2.86,8.453-8.842,8.453-3.642,0-8.583-1.301-16.905-3.901-3.25,2.73-7.672,8.582-8.062,15.084v25.877c0,9.362.91,13.264,5.201,14.694v1.82h-23.666v-1.82Z"/>
    </g>
    <g class="cls-2">
      <path class="cls-1" d="M478.284,99.997v-21.456c-3.641,15.084-13.004,27.958-26.527,27.958-9.622,0-17.685-6.112-17.685-17.035,0-13.394,13.653-18.595,29.778-23.146l14.434-4.161c-.26-12.873-7.282-17.814-16.904-17.814-7.282,0-14.435,3.121-21.066,11.053l-1.3-1.17c7.282-8.973,17.295-14.954,29.128-14.954,15.734,0,23.146,8.452,23.146,24.316v25.097c0,9.362.91,13.264,5.201,14.694v1.82h-13.004c-3.381,0-5.201-1.82-5.201-5.201ZM458.258,97.006c12.743,0,19.896-17.944,20.025-29.647v-3.382l-13.914,4.031c-6.111,1.69-18.205,6.112-18.205,16.905,0,8.582,6.112,12.093,12.094,12.093Z"/>
      <path class="cls-1" d="M503.124,75.16c0-19.896,13.653-35.76,36.279-35.76,5.462,0,10.013,1.3,13.914,3.251v-22.887c0-7.672-1.95-8.972-5.201-10.402v-1.82l17.164-7.542,1.301,1.04v87.644c0,9.362.91,13.264,5.201,14.694v1.82h-13.264c-3.381,0-5.201-1.82-5.201-5.201v-5.462c-4.941,5.722-12.743,12.483-22.496,12.224-16.515-.26-27.697-15.475-27.697-31.599ZM538.883,98.956c5.721,0,10.662-3.12,14.434-7.151v-28.738c0-9.622-8.452-20.936-19.375-20.936-14.305,0-18.075,12.224-18.075,22.496,0,12.354,4.291,34.329,23.017,34.329Z"/>
    </g>
  </g>
</svg>